<?xml version="1.0" standalone="no"?><!DOCTYPE svg PUBLIC "-//W3C//DTD SVG 1.1//EN" "http://www.w3.org/Graphics/SVG/1.1/DTD/svg11.dtd"><svg t="1614691694620" class="icon" viewBox="0 0 1024 1024" version="1.1" xmlns="http://www.w3.org/2000/svg" p-id="4456" width="50" height="50" xmlns:xlink="http://www.w3.org/1999/xlink"><defs><style type="text/css"></style></defs><path d="M678.64064 514.00704a168.448 168.448 0 1 0-168.448 167.7056 168.06912 168.06912 0 0 0 168.448-167.7056z" fill="#F4CA1C" p-id="4457"></path><path d="M983.04 603.41248a242.48832 242.48832 0 0 0-280.39168-238.40768 253.32224 253.32224 0 0 0-446.42816-77.824 249.13408 249.13408 0 0 0-48.95744 153.38496A203.39712 203.39712 0 0 0 240.18944 844.8h527.77472a31.98976 31.98976 0 0 0 14.75072-3.71712A242.03776 242.03776 0 0 0 983.04 603.41248z m-242.432 177.30048H240.18944a139.38688 139.38688 0 1 1 0-278.76864 31.96928 31.96928 0 0 0 8.704-1.34144 31.96416 31.96416 0 0 0 24.84736-35.99872 187.81184 187.81184 0 0 1 157.74208-214.016A188.46208 188.46208 0 0 1 641.024 383.42656a241.62816 241.62816 0 0 0-142.848 219.98592 32.1792 32.1792 0 0 0 64.3584 0 178.06848 178.06848 0 1 1 178.0736 177.30048z" fill="#595BB3" p-id="4458"></path></svg>