<?xml version="1.0" standalone="no"?><!DOCTYPE svg PUBLIC "-//W3C//DTD SVG 1.1//EN" "http://www.w3.org/Graphics/SVG/1.1/DTD/svg11.dtd"><svg t="1628591029945" class="icon" viewBox="0 0 1024 1024" version="1.1" xmlns="http://www.w3.org/2000/svg" p-id="18809" xmlns:xlink="http://www.w3.org/1999/xlink" width="128" height="128"><defs><style type="text/css"></style></defs><path d="M950.848 838.4h-0.512a13.312 13.312 0 0 1 0.512 3.648c0 39.872-194.944 109.12-438.848 109.12s-438.848-69.248-438.848-109.12a12.8 12.8 0 0 1 0.512-3.648h-0.512v-124.16A934.4 934.4 0 0 0 512 802.752a934.4 934.4 0 0 0 438.848-88.512v124.16zM512 72.704c243.904 0 438.848 69.248 438.848 109.12S755.904 290.944 512 290.944 73.152 221.696 73.152 181.824 268.096 72.768 512 72.768zM950.848 620.8c0 39.872-194.944 109.12-438.848 109.12S73.152 660.8 73.152 620.8a12.416 12.416 0 0 1 0.512-3.648h-0.512V492.8A933.76 933.76 0 0 0 512 581.504 933.76 933.76 0 0 0 950.848 492.8v124.544h-0.512a12.416 12.416 0 0 1 0.512 3.648z m0-221.248c0 39.936-194.944 109.12-438.848 109.12S73.152 439.616 73.152 399.68a13.696 13.696 0 0 1 0.512-3.648h-0.512V275.2A935.552 935.552 0 0 0 512 363.712 935.552 935.552 0 0 0 950.848 275.2v120.896h-0.512a12.8 12.8 0 0 1 0.512 3.648z m72.704-221.056C1018.56 79.68 791.616 0 512 0S5.44 79.744 0.448 178.624H0V842.24C0 942.656 229.248 1024 512 1024s512-81.344 512-181.824V620.8 399.68 178.624h-0.448z" p-id="18810"></path></svg>