<?xml version="1.0" standalone="no"?><!DOCTYPE svg PUBLIC "-//W3C//DTD SVG 1.1//EN" "http://www.w3.org/Graphics/SVG/1.1/DTD/svg11.dtd"><svg t="1624439982534" class="icon" viewBox="0 0 1024 1024" version="1.1" xmlns="http://www.w3.org/2000/svg" p-id="4238" xmlns:xlink="http://www.w3.org/1999/xlink" width="128" height="128"><defs><style type="text/css"></style></defs><path d="M951.149714 147.338971V51.463314a14.628571 14.628571 0 0 0-14.628571-14.628571H87.478857a14.628571 14.628571 0 0 0-14.628571 14.628571v921.073372a14.628571 14.628571 0 0 0 14.628571 14.628571h849.042286a14.628571 14.628571 0 0 0 14.628571-14.628571V184.173714H72.850286v-36.834743h878.299428zM65.828571 0h892.342858a29.257143 29.257143 0 0 1 29.257142 29.257143v965.485714a29.257143 29.257143 0 0 1-29.257142 29.257143H65.828571a29.257143 29.257143 0 0 1-29.257142-29.257143V29.257143a29.257143 29.257143 0 0 1 29.257142-29.257143z m94.251886 294.677943h703.839086a14.628571 14.628571 0 0 1 14.628571 14.628571v81.247086a14.628571 14.628571 0 0 1-14.628571 14.628571H160.080457a14.628571 14.628571 0 0 1-14.628571-14.628571v-81.247086a14.628571 14.628571 0 0 1 14.628571-14.628571z m0 191.531886h369.956572a14.628571 14.628571 0 0 1 14.628571 14.628571V884.150857a14.628571 14.628571 0 0 1-14.628571 14.628572H160.080457a14.628571 14.628571 0 0 1-14.628571-14.628572V500.8384a14.628571 14.628571 0 0 1 14.628571-14.628571z m21.650286 36.834742v331.512686h326.641371V523.044571H181.745371z m457.406171-36.834742h224.782629a14.628571 14.628571 0 0 1 14.628571 14.628571V884.150857a14.628571 14.628571 0 0 1-14.628571 14.628572H639.136914a14.628571 14.628571 0 0 1-14.628571-14.628572V500.8384a14.628571 14.628571 0 0 1 14.628571-14.628571z m21.650286 36.834742v331.512686h181.467429V523.044571H660.801829z" p-id="4239"></path></svg>
