<?xml version="1.0" standalone="no"?><!DOCTYPE svg PUBLIC "-//W3C//DTD SVG 1.1//EN"
	"http://www.w3.org/Graphics/SVG/1.1/DTD/svg11.dtd">
<svg t="1628590177367" class="icon" viewBox="0 0 1024 1024" version="1.1" xmlns="http://www.w3.org/2000/svg" p-id="6633"
	 width="128" height="128">
	<defs>
		<style type="text/css"></style>
	</defs>
	<path
		d="M278.755556 853.333333H91.022222c-17.066667 0-34.133333-17.066667-34.133333-34.133333V159.288889c0-17.066667 17.066667-34.133333 34.133333-34.133333h182.044445c11.377778 0 22.755556 5.688889 28.444444 17.066666 5.688889 11.377778 5.688889 22.755556 0 34.133334 0 11.377778-11.377778 22.755556-22.755555 22.755555H130.844444v585.955556h147.911112c11.377778 0 22.755556 5.688889 28.444444 17.066666 5.688889 11.377778 5.688889 22.755556 0 34.133334-5.688889 11.377778-17.066667 17.066667-28.444444 17.066666zM534.755556 210.488889h364.088888V108.088889H534.755556v102.4z m398.222222 73.955555H494.933333c-17.066667 0-34.133333-17.066667-34.133333-39.822222V68.266667c0-11.377778 5.688889-17.066667 11.377778-22.755556 5.688889-5.688889 17.066667-11.377778 22.755555-11.377778h432.355556c17.066667 0 34.133333 17.066667 34.133333 34.133334v176.355555c5.688889 22.755556-11.377778 39.822222-28.444444 39.822222z m-398.222222 591.644445h364.088888v-108.088889H534.755556v108.088889z m398.222222 68.266667H494.933333c-17.066667 0-34.133333-17.066667-34.133333-34.133334v-176.355555c0-17.066667 17.066667-34.133333 34.133333-34.133334h432.355556c17.066667 0 34.133333 17.066667 34.133333 34.133334V910.222222c5.688889 17.066667-11.377778 34.133333-28.444444 34.133334z m-398.222222-403.911112h364.088888V438.044444H534.755556v102.4z m398.222222 73.955556H494.933333c-17.066667 0-34.133333-17.066667-34.133333-34.133333V398.222222c0-17.066667 17.066667-34.133333 34.133333-34.133333h432.355556c22.755556 0 39.822222 17.066667 39.822222 34.133333v176.355556c0 22.755556-17.066667 39.822222-34.133333 39.822222z"
		p-id="6634"></path>
	<path
		d="M113.777778 460.8h193.422222c22.755556 0 34.133333 11.377778 34.133333 34.133333 0 17.066667-11.377778 34.133333-34.133333 34.133334H113.777778V460.8zM568.888889 102.4h56.888889v113.777778H568.888889zM568.888889 432.355556h56.888889v113.777777H568.888889z"
		p-id="6635"></path>
	<path d="M568.888889 762.311111h56.888889v113.777778H568.888889z" p-id="6636"></path>
</svg>
