<?xml version="1.0" standalone="no"?><!DOCTYPE svg PUBLIC "-//W3C//DTD SVG 1.1//EN"
	"http://www.w3.org/Graphics/SVG/1.1/DTD/svg11.dtd">
<svg t="1628692299036" class="icon" viewBox="0 0 1024 1024" version="1.1" xmlns="http://www.w3.org/2000/svg" p-id="755"
	 width="200" height="200">
	<defs>
		<style type="text/css"></style>
	</defs>
	<path
		d="M956.4 780.4l-22-12.7c-0.6-0.4-1-1.1-0.8-1.8 1.3-5.9 2-11.9 2-18.2 0-6.2-0.7-12.3-2-18.2-0.2-0.7 0.2-1.5 0.8-1.8l22-12.7c3.8-2.2 5.1-7.1 2.9-10.9l-16-27.7c-2.2-3.8-7.1-5.1-10.9-2.9l-22 12.7c-0.6 0.4-1.4 0.3-2-0.2-8.9-8.2-19.6-14.5-31.5-18.2-0.7-0.2-1.2-0.9-1.2-1.6v-31.8c0-0.9-0.8-1.7-1.7-1.7h-44.6c-0.9 0-1.7 0.8-1.7 1.7v31.8c0 0.7-0.5 1.4-1.2 1.6-11.8 3.7-22.6 10-31.5 18.2-0.5 0.5-1.3 0.6-2 0.2l-22-12.7c-3.8-2.2-8.7-0.9-10.9 2.9l-16 27.7c-2.2 3.8-0.9 8.7 2.9 10.9l23.1 13.3c-1.5 6.2-2.3 12.7-2.3 19.4s0.8 13.2 2.3 19.4L747 780.4c-3.8 2.2-5.1 7.1-2.9 10.9l16 27.7c2.2 3.8 7.1 5.1 10.9 2.9l23.1-13.4c9.1 8.6 20.1 15.2 32.4 19 0.7 0.2 1.2 0.9 1.2 1.6V861c0 0.9 0.8 1.7 1.7 1.7H874c0.9 0 1.7-0.8 1.7-1.7v-31.8c0-0.7 0.5-1.4 1.2-1.6 11.8-3.7 22.5-10 31.5-18.2 0.5-0.5 1.3-0.6 2-0.2l22 12.7c3.8 2.2 8.7 0.9 10.9-2.9l16-27.7c2.2-3.8 0.9-8.7-2.9-10.9z m-69.3-27l-0.3 1.8c-0.3 1.3-0.6 2.5-1 3.7-1.5 4.7-4 8.9-7.2 12.5-0.9 1-1.8 2-2.8 2.9-2.3 2.1-4.9 3.9-7.7 5.3-1.1 0.6-2.3 1.1-3.5 1.5l-1.8 0.6c-1.7 0.6-3.5 1-5.4 1.3s-3.7 0.4-5.7 0.4c-1 0-1.9 0-2.9-0.1-2.8-0.2-5.6-0.8-8.2-1.6-4.9-1.6-9.3-4.2-13-7.5-2.8-2.5-5.1-5.4-7-8.6-1.4-2.4-2.5-5-3.3-7.7-0.3-0.9-0.5-1.8-0.7-2.8-0.1-0.7-0.3-1.4-0.4-2-0.2-1.2-0.3-2.3-0.4-3.5 0-0.6-0.1-1.3-0.1-1.9s0-1.3 0.1-1.9c0.1-1.3 0.2-2.5 0.4-3.7l0.3-1.8c0.6-2.8 1.5-5.5 2.7-8 1.6-3.4 3.8-6.5 6.3-9.1 0.6-0.7 1.3-1.3 2-1.9 3.7-3.3 8.1-5.9 12.9-7.5 1.7-0.6 3.5-1 5.4-1.3 0.5-0.1 0.9-0.1 1.4-0.2 1.4-0.2 2.8-0.3 4.3-0.3 1.4 0 2.8 0.1 4.1 0.2l1.8 0.3c1.8 0.3 3.5 0.7 5.1 1.2 2.4 0.8 4.7 1.8 6.9 3.1s4.2 2.7 6 4.4c1.4 1.2 2.7 2.6 3.8 4 2.3 2.9 4.2 6.1 5.6 9.6 0.7 1.8 1.2 3.6 1.6 5.5l0.3 1.8c0.3 1.8 0.4 3.7 0.4 5.6 0.4 1.9 0.3 3.8 0 5.7z"
		p-id="756"></path>
	<path
		d="M680.4 216.1L905 264.5c0.8 0.2 1.3 0.9 1.3 1.6v321.3c0 0.9 0.8 1.7 1.7 1.7h49.6c0.9 0 1.7-0.8 1.7-1.7V245.8c0-11.1-8.4-20.8-20.3-23.3L658 162h-0.2c-0.3-0.1-0.5-0.1-0.8-0.2-0.2 0-0.4-0.1-0.6-0.1-0.3 0-0.5-0.1-0.8-0.1-0.2 0-0.4-0.1-0.7-0.1-0.3 0-0.5 0-0.8-0.1h-3.7c-0.3 0-0.5 0-0.8 0.1-0.2 0-0.5 0-0.7 0.1-0.3 0-0.5 0.1-0.8 0.1-0.2 0-0.5 0.1-0.7 0.1-0.2 0-0.5 0.1-0.7 0.1-0.2 0-0.5 0.1-0.7 0.1h-0.2l-274.4 59.1c-0.2 0.1-0.5 0.1-0.7 0L96.2 162c-7.9-1.7-16.2 0-22.5 4.5-6.4 4.6-10.1 11.5-10.1 18.8v591.4c0 11.1 8.4 20.8 20.4 23.3l280.9 60.5c0.5 0.1 1.1 0.2 1.7 0.3h0.3c0.6 0.1 1.1 0.1 1.7 0.2h0.5c0.7 0 1.3 0.1 2 0.1s1.3 0 2-0.1h0.5c0.6 0 1.1-0.1 1.7-0.2h0.3c0.6-0.1 1.1-0.2 1.7-0.3l274.4-59.1c0.2-0.1 0.5-0.1 0.7 0l39.9 8.6c1 0.2 2-0.6 2-1.6v-45.9c0-0.8-0.6-1.5-1.3-1.6l-13.2-2.8c-0.8-0.2-1.3-0.9-1.3-1.6V217.8c-0.1-1.1 0.9-1.9 1.9-1.7z m-561.8 0l224.6 48.4c0.8 0.2 1.3 0.9 1.3 1.6v538.6c0 1.1-1 1.9-2 1.6L117.9 758c-0.8-0.2-1.3-0.9-1.3-1.6V217.8c0-1.1 1-1.9 2-1.7z m280.2 48.4l224.6-48.4c1-0.2 2 0.6 2 1.6v538.6c0 0.8-0.6 1.5-1.3 1.6l-224.6 48.4c-1 0.2-2-0.6-2-1.6V266.2c0-0.8 0.5-1.5 1.3-1.7z"
		p-id="757"></path>
</svg>
