<?xml version="1.0" standalone="no"?><!DOCTYPE svg PUBLIC "-//W3C//DTD SVG 1.1//EN"
	"http://www.w3.org/Graphics/SVG/1.1/DTD/svg11.dtd">
<svg t="1629801448621" class="icon" viewBox="0 0 1024 1024" version="1.1" xmlns="http://www.w3.org/2000/svg" p-id="2637"
	 width="32" height="32">
	<defs>
		<style type="text/css"></style>
	</defs>
	<path
		d="M727.824 491.36c134.696 0 252.176 100 252.176 222.776 0 54.72-26.184 105.76-71.264 149.432l-2.96 2.84-2.784 2.584 0.64 6.76c0.92 8.992 2.384 20.576 4.384 34.664l1.04 7.256 5.936 40.168a16 16 0 0 1-21.312 17.376l-1.152-0.48-48.152-21.92a2368.016 2368.016 0 0 0-31.168-13.84l-9.76-4.192-8.112-3.368-6.424-2.552-3.568 0.808c-19.216 4.28-34.856 6.64-50.52 7.176l-3.616 0.088-3.384 0.032c-139.36 0-252.464-98.136-252.464-222.832 0-124.536 113.184-222.776 252.464-222.776zM395.52 524.64a52 52 0 0 1 51.968 50.136l0.032 1.864v267.52a52 52 0 0 1-50.136 51.968l-1.864 0.032H128a52 52 0 0 1-51.968-50.136l-0.032-1.864V576.64a52 52 0 0 1 50.136-51.968L128 524.64h267.52z m332.304 38.72c-101.6 0-180.464 68.448-180.464 150.776 0 82.48 78.776 150.832 180.464 150.832 12.104 0 24.992-1.792 42.64-5.752l3.6-0.816 8.08-1.928c9.32-2.176 15.704-2.008 36.168 6.16l4.608 1.864 7.816 3.304-0.112-2.312c-0.072-1.52-0.112-2.96-0.128-4.336l-0.016-2 0.032-1.912c0.08-3.552 0.368-6.776 1.008-10.056 1.648-8.432 4.664-15.608 12.992-22.608 41.096-34.504 63.488-72.92 63.488-110.44 0-80.208-82.904-150.776-180.176-150.776zM375.52 596.632H148v227.52h227.52v-227.52z m260.64 47.208a33.272 33.272 0 0 1 33.28 33.28 33.272 33.272 0 0 1-33.28 33.28 33.272 33.272 0 0 1-33.28-33.28 33.272 33.272 0 0 1 33.28-33.28z m141.44 0a33.272 33.272 0 0 1 33.28 33.28 33.272 33.272 0 0 1-33.28 33.28 33.272 33.272 0 0 1-33.28-33.28 33.272 33.272 0 0 1 33.28-33.28zM395.52 92a52 52 0 0 1 51.968 50.136l0.032 1.864v267.52a52 52 0 0 1-50.136 51.968l-1.864 0.032H128a52 52 0 0 1-51.968-50.136L76 411.52V144a52 52 0 0 1 50.136-51.968L128 92h267.52z m432.64 0a52 52 0 0 1 51.968 50.136l0.032 1.864v267.52a52 52 0 0 1-50.136 51.968l-1.864 0.032H560.64a52 52 0 0 1-51.968-50.136l-0.032-1.864V144a52 52 0 0 1 50.136-51.968l1.864-0.032h267.52z m-452.64 72H148v227.512h227.52V164z m432.632 0h-227.52v227.512h227.52V164z"
		p-id="2638"></path>
</svg>
