<?xml version="1.0" standalone="no"?><!DOCTYPE svg PUBLIC "-//W3C//DTD SVG 1.1//EN" "http://www.w3.org/Graphics/SVG/1.1/DTD/svg11.dtd"><svg t="1632533310202" class="icon" viewBox="0 0 1024 1024" version="1.1" xmlns="http://www.w3.org/2000/svg" p-id="5834" xmlns:xlink="http://www.w3.org/1999/xlink" width="200" height="200"><defs><style type="text/css"></style></defs><path d="M680.96 640m-281.6 0a281.6 281.6 0 1 0 563.2 0 281.6 281.6 0 1 0-563.2 0Z" fill="#FED847" p-id="5835"></path><path d="M928.8704 808.96H66.8672V112.64h862.0032v245.76H210.5344v-40.96H887.808V153.6H107.9296v614.4H887.808V399.36h41.0624v409.6zM231.0144 235.52a41.02144 41.02144 0 1 0-41.0624 40.96 40.96 40.96 0 0 0 41.0624-40.8576V235.52z m205.312 0a41.0624 41.0624 0 1 0-41.1648 40.96h0.1024a41.03168 41.03168 0 0 0 41.0624-40.96z m-102.6048 0a41.05216 41.05216 0 1 0-82.1248-0.2048 41.0624 41.0624 0 0 0 40.96 41.1648h0.1024a41.03168 41.03168 0 0 0 41.0624-40.96z m123.0848 471.04H169.472V419.84h287.3344v286.72z m-246.272-40.96H415.744V460.8H210.5344v204.8z m636.20096 40.96H518.3488v-40.96h287.3344v-81.92H518.3488v-40.96h328.38656v163.84z m0-245.76H518.3488v-40.96h328.38656v40.96z" fill="" p-id="5836"></path></svg>