<?xml version="1.0" standalone="no"?><!DOCTYPE svg PUBLIC "-//W3C//DTD SVG 1.1//EN"
	"http://www.w3.org/Graphics/SVG/1.1/DTD/svg11.dtd">
<svg t="1629801560305" class="icon" viewBox="0 0 1024 1024" version="1.1" xmlns="http://www.w3.org/2000/svg" p-id="4701"
	 width="32" height="32">
	<defs>
		<style type="text/css"></style>
	</defs>
	<path
		d="M797.2 530.6v224.9c0 13-10.5 23.5-23.5 23.5H231c-13 0-23.5-10.5-23.5-23.5 0-7 3.2-13.7 8.6-18.2l176.1-143.8c7.5-6.2 18.1-7 26.5-2.2l90.6 51.9c7.3 4.2 16.2 4.1 23.5-0.1l229.1-132.8c11.2-6.5 25.6-2.7 32.1 8.5 2.1 3.6 3.2 7.7 3.2 11.8z m-513.9-41c-44.2 0-80.1-36.8-80.1-82.2 0-45.4 35.9-82.2 80.1-82.2s80.1 36.8 80.1 82.2c0 45.4-35.9 82.2-80.1 82.2z m307.2-328.8v58.7H157.4c-19 0-34.3 15.8-34.3 35.2v610.6c0 19.5 15.4 35.2 34.3 35.2h709.4c19 0 34.3-15.8 34.3-35.2V422.6h57.2v442.8c0 51.9-41 93.9-91.5 93.9H157.4c-50.6 0-91.5-42.1-91.5-93.9V254.7c0-51.9 41-93.9 91.5-93.9h433.1z m279.6 64.7c-33.4 3.2-63.6 12.7-90.9 28.2-35.4 20.2-55.9 55-62.2 107.6l-56.8-7.1c8.3-70.3 38.9-121.9 91.1-151.8 30.2-17.3 63.1-28.4 98.5-33.6l-60-53.4c-11.9-10.6-13.2-29.2-2.9-41.4 10.4-12.2 28.4-13.6 40.4-2.9l115.1 102.5c0.1 0.1 0.2 0.2 0.4 0.3 2 1.8 3.8 3.9 5.2 6.1 4.7 7.4 5.9 16.6 3.2 25.1-0.8 2.7-2.1 5.3-3.7 7.7l-84.2 127.8c-8.8 13.4-26.6 17-39.7 7.9-13.1-9.1-16.5-27.3-7.7-40.8l54.2-82.2z"
		p-id="4702"></path>
</svg>
