<?xml version="1.0" standalone="no"?><!DOCTYPE svg PUBLIC "-//W3C//DTD SVG 1.1//EN"
	"http://www.w3.org/Graphics/SVG/1.1/DTD/svg11.dtd">
<svg t="1628589970614" class="icon" viewBox="0 0 1024 1024" version="1.1" xmlns="http://www.w3.org/2000/svg" p-id="4319"
	 width="128" height="128">
	<defs>
		<style type="text/css"></style>
	</defs>
	<path
		d="M643.208 470.016a321.2 321.2 0 0 1 125.688-25.472c4.296 0 8.576 0.184 12.936 0.184 20.408-51.576 25.592-112.568 15.36-171.832-23.816-136.008-152.328-226.88-287.376-202.944-134.84 23.936-248.768 128.64-224.768 264.64 5.056 29.376 19.328 75.2 36.168 108.28l-245.064 352.968c-8.952 12.92-14.2 36.28-11.392 52.216l10.688 60.344c-10.168-58.168 2.752 21 10.624 20.816l80.776 1.08c15.488-2.816 35-15.872 43.576-29.168l96.896-151.296 0.888-0.968 84.672 6.784 113.16-177.144c0.384 0 0.776 0.184 1.088 0.184a341.096 341.096 0 0 1 33.536-39.296 316.184 316.184 0 0 1 102.544-69.376z m-514 363l-11.96 5.128 1.28-13.128L353.28 484.792l14.08 13.048-238.08 335.176h-0.072z m356.68-625.976c36.368-52.888 108.728-66.288 161.616-29.912 0.456 0.304 0.888 0.608 1.328 0.92 53 37.768 65.856 111.104 28.8 164.608-37.112 53.312-74.872 15.68-127.936-21.76-52.808-37.568-100.928-60.352-63.808-113.856z"
		p-id="4320"></path>
	<path
		d="M765.696 510.08c-142.016-0.112-257.232 114.936-257.344 256.952 0 141.952 115.2 256.968 257.344 256.968 141.984 0.168 257.232-114.784 257.424-256.768v-0.2c0-141.952-115.2-257.016-257.424-257.016v0.064z"
		p-id="4321"></path>
	<path
		d="M785.64 784.16a39.68 39.68 0 0 1 6.496-19.912 89.16 89.16 0 0 0 15.624-31.696 42.496 42.496 0 0 0 15.288-28.496c0.992-16.944-3.184-17.824-3.184-17.824 6.168-18.488 8.032-88.032-36.632-79.992-7.048-14.752-53.928-26.184-75.824 12.864a82.544 82.544 0 0 0-6.376 67.784c0 1.544-2.976-1.536-3.96 8.368a50.224 50.224 0 0 0 8.24 29.928c2.016 2.488 4.624 4.408 7.592 5.608a80.96 80.96 0 0 0 16.176 33 18.488 18.488 0 0 1-9.688 19.696c-42.48 8.704-81.312 32.144-81.312 57.552v19.696c4.952 35.536 101.464 33.016 166.584 31.576a6.04 6.04 0 0 0 1.872-7.912 34.992 34.992 0 0 0-16.624-12.664c0-0.544-1.976-0.88-2.184-1.432a29.16 29.16 0 0 1-2.528-17.6c0 0.016 0.224-67.544 0.44-68.544z"
		fill="#888888" p-id="4322"></path>
	<path
		d="M895.672 761.976h-72.512a17.168 17.168 0 0 0-17.6 16.504v75.816c0.56 3.624 2.088 7.048 4.408 9.896l41.808 28.616c2.232 1.6 4.96 2.384 7.704 2.192 2.896 0.088 5.68-1.136 7.592-3.304l40.72-27.504c3.184-1.832 5.248-5.12 5.496-8.8v-75.808a15.728 15.728 0 0 0-17.616-17.608z m0.776 43.352l-15.512 14.96 3.848 20.808a3.504 3.504 0 0 1-1.424 3.624 3.36 3.36 0 0 1-2.208 0.768 4.344 4.344 0 0 1-1.76 0l-19.472-9.568-19.584 9.568a4.48 4.48 0 0 1-1.664 0 3.376 3.376 0 0 1-2.304-0.768 3.728 3.728 0 0 1-1.424-3.624l4.064-20.808-15.512-14.424a3.576 3.576 0 0 1-0.984-3.832 3.832 3.832 0 0 1 3.072-2.536l21.568-4.288 9.36-18.928a3.84 3.84 0 0 1 6.816 0l9.56 19.376 21.464 3.736a3.864 3.864 0 0 1 2.976 2.52 3.776 3.776 0 0 1-0.88 3.416z"
		fill="#888888" p-id="4323"></path>
</svg>
