<?xml version="1.0" standalone="no"?><!DOCTYPE svg PUBLIC "-//W3C//DTD SVG 1.1//EN"
	"http://www.w3.org/Graphics/SVG/1.1/DTD/svg11.dtd">
<svg t="1628590590391" class="icon" viewBox="0 0 1024 1024" version="1.1" xmlns="http://www.w3.org/2000/svg"
	 p-id="12686"
	 width="128" height="128">
	<defs>
		<style type="text/css"></style>
	</defs>
	<path
		d="M314.514286 329.142857h402.285714c14.628571 0 29.257143-14.628571 29.257143-29.257143s-14.628571-29.257143-29.257143-29.257143H314.514286c-14.628571 0-29.257143 14.628571-29.257143 29.257143s7.314286 29.257143 29.257143 29.257143z m0 182.857143h402.285714c14.628571 0 29.257143-14.628571 29.257143-29.257143s-14.628571-29.257143-29.257143-29.257143H314.514286c-14.628571 0-29.257143 14.628571-29.257143 29.257143s7.314286 29.257143 29.257143 29.257143z m672.914285 270.628571V87.771429c0-51.2-43.885714-87.771429-102.4-87.771429H138.971429C80.457143 0 36.571429 36.571429 36.571429 87.771429V877.714286c0 80.457143 73.142857 146.285714 168.228571 146.285714H987.428571v-58.514286c-58.514286 0-102.4-43.885714-102.4-95.085714 0-43.885714 43.885714-87.771429 102.4-87.771429zM138.971429 58.514286h753.371428c21.942857 0 36.571429 14.628571 36.571429 29.257143v636.342857H212.114286c-36.571429 0-73.142857 14.628571-102.4 29.257143V87.771429c-7.314286-14.628571 7.314286-29.257143 29.257143-29.257143zM102.4 877.714286c0-51.2 43.885714-95.085714 102.4-95.085715h650.971429c-21.942857 21.942857-36.571429 58.514286-36.571429 95.085715s14.628571 65.828571 36.571429 95.085714H204.8C146.285714 965.485714 102.4 928.914286 102.4 877.714286z"
		p-id="12687"></path>
</svg>
