<?xml version="1.0" standalone="no"?><!DOCTYPE svg PUBLIC "-//W3C//DTD SVG 1.1//EN"
	"http://www.w3.org/Graphics/SVG/1.1/DTD/svg11.dtd">
<svg t="1624440117684" class="icon" viewBox="0 0 1024 1024" version="1.1" xmlns="http://www.w3.org/2000/svg" p-id="7199"
	 width="128" height="128">
	<defs>
		<style type="text/css"></style>
	</defs>
	<path
		d="M701.9008 942.1824H242.8672a97.28 97.28 0 0 1-97.1776-97.1776V178.9952a97.28 97.28 0 0 1 97.1776-97.1776H732.672a97.28 97.28 0 0 1 97.1776 97.1776V832.256a12.8 12.8 0 0 1-25.6 0V178.9952a71.6544 71.6544 0 0 0-71.5776-71.5776H242.8672a71.6544 71.6544 0 0 0-71.5776 71.5776v666.0352a71.6544 71.6544 0 0 0 71.5776 71.5776h459.0336a12.8 12.8 0 0 1 0 25.5744z"
		fill="#2c2c2c" p-id="7200"></path>
	<path
		d="M495.5392 418.7136l-7.9616-3.6608c-4.2752-1.8432-6.7328-6.7328-6.7328-11.6224a63.5904 63.5904 0 0 0 0-15.2832 11.52 11.52 0 0 1 6.7328-11.6224l7.9616-3.6864c5.504-2.432 8.576-9.1648 6.1184-14.6944l-3.6608-8.576-3.6608-8.576a12.16 12.16 0 0 0-14.6944-6.7328l-7.9616 3.072a11.3664 11.3664 0 0 1-12.8512-3.6608 178.4576 178.4576 0 0 0-10.3936-11.008 12.7488 12.7488 0 0 1-3.6608-12.8512l3.0464-7.9616c2.4576-5.504-0.6144-12.2368-6.1184-14.6944l-17.1264-7.3472a11.2384 11.2384 0 0 0-14.6944 5.504l-3.6608 7.9616c-1.8432 4.2752-6.7328 6.7328-11.6224 6.7328a63.5904 63.5904 0 0 0-15.2832 0 11.52 11.52 0 0 1-11.6224-6.7328l-3.6608-7.9616c-2.4576-5.504-9.1648-8.576-14.6944-6.1184l-8.576 3.6608-8.576 3.6608a12.16 12.16 0 0 0-6.7328 14.6944l3.0464 7.9616a11.3664 11.3664 0 0 1-3.6608 12.8512c-3.6608 3.072-7.3472 6.7328-11.008 10.3936a12.7488 12.7488 0 0 1-12.8512 3.6608l-7.9616-3.0464c-5.504-2.4576-12.2368 0.6144-14.6944 6.1184l-3.6608 8.576-3.6608 8.576a11.2384 11.2384 0 0 0 5.504 14.6944l7.9616 3.6608c4.2752 1.8432 6.7328 6.7328 6.7328 11.6224a63.5904 63.5904 0 0 0 0 15.2832 11.52 11.52 0 0 1-6.7328 11.6224l-7.9616 3.6608c-5.504 2.4576-8.576 9.1904-6.1184 14.6944l7.3472 17.1264a12.16 12.16 0 0 0 14.6944 6.7328l7.9616-3.072a11.3664 11.3664 0 0 1 12.8512 3.6608c3.0464 3.6608 6.7328 7.3472 10.3936 11.008a12.7488 12.7488 0 0 1 3.6608 12.8512l-3.0464 7.9616c-2.4576 5.504 0.6144 12.2368 6.1184 14.6944l8.576 3.6608 8.576 3.6608c5.504 2.4576 12.2368 0 14.6944-5.504l3.6608-7.9616c1.8432-4.2752 6.7328-6.7328 11.6224-6.7328 4.8896 0.6144 10.3936 0.6144 15.3088 0a11.52 11.52 0 0 1 11.6224 6.7328l3.6608 7.9616c2.4576 5.504 9.1648 8.576 14.6944 6.1184l17.1264-7.3472a12.16 12.16 0 0 0 6.7328-14.6944l-3.072-7.9616a11.3664 11.3664 0 0 1 3.6608-12.8512c3.6608-3.0464 7.3472-6.7328 11.008-10.3936a12.7744 12.7744 0 0 1 12.8512-3.6608l7.9616 3.0464c5.504 2.4576 12.2368-0.6144 14.6944-6.1184l7.3472-17.1264a11.2384 11.2384 0 0 0-5.5552-14.6176z m-67.9168-6.1184a45.1328 45.1328 0 0 1-59.3408 23.8592 45.1328 45.1328 0 0 1-23.8592-59.3408 44.928 44.928 0 0 1 59.3408-23.8592 45.1072 45.1072 0 0 1 23.8592 59.3408zM699.2896 320.6656h-132.1472a21.4528 21.4528 0 0 1-21.4528-21.4528v-0.1536c0-11.8528 9.6-21.4528 21.4528-21.4528h132.1472c11.8528 0 21.4528 9.6 21.4528 21.4528v0.1536a21.4528 21.4528 0 0 1-21.4528 21.4528zM699.2896 426.368h-132.1472a21.4528 21.4528 0 0 1-21.4528-21.4528v-0.1536c0-11.8528 9.6-21.4528 21.4528-21.4528h132.1472c11.8528 0 21.4528 9.6 21.4528 21.4528v0.1536a21.4528 21.4528 0 0 1-21.4528 21.4528zM699.2896 532.096h-132.1472a21.4528 21.4528 0 0 1-21.4528-21.4528v-0.1536c0-11.8528 9.6-21.4528 21.4528-21.4528h132.1472c11.8528 0 21.4528 9.6 21.4528 21.4528v0.1536a21.4528 21.4528 0 0 1-21.4528 21.4528zM699.2896 637.824H276.2752a21.4528 21.4528 0 0 1-21.4528-21.4528v-0.1792c0-11.8528 9.6-21.4528 21.4528-21.4528h423.0144c11.8528 0 21.4528 9.6 21.4528 21.4528v0.1536a21.4784 21.4784 0 0 1-21.4528 21.4784zM699.2896 743.5264H276.2752a21.4528 21.4528 0 0 1-21.4528-21.4528V721.92c0-11.8528 9.6-21.4528 21.4528-21.4528h423.0144c11.8528 0 21.4528 9.6 21.4528 21.4528v0.1536a21.4528 21.4528 0 0 1-21.4528 21.4528z"
		fill="#2c2c2c" p-id="7201"></path>
	<path
		d="M817.0496 941.952c-33.7664 0-61.2608-27.4688-61.2608-61.2608s27.4688-61.2608 61.2608-61.2608 61.2608 27.4688 61.2608 61.2608-27.4944 61.2608-61.2608 61.2608z m0-96.896c-19.6608 0-35.6608 16-35.6608 35.6608s16 35.6608 35.6608 35.6608 35.6608-16 35.6608-35.6608-16-35.6608-35.6608-35.6608z"
		fill="#2c2c2c" p-id="7202"></path>
</svg>
