<?xml version="1.0" standalone="no"?><!DOCTYPE svg PUBLIC "-//W3C//DTD SVG 1.1//EN"
	"http://www.w3.org/Graphics/SVG/1.1/DTD/svg11.dtd">
<svg t="1632533157970" class="icon" viewBox="0 0 1024 1024" version="1.1" xmlns="http://www.w3.org/2000/svg" p-id="4068"
	 width="200" height="200">
	<defs>
		<style type="text/css"></style>
	</defs>
	<path
		d="M434.536437 1007.67421m-16.305408 0a16.305408 16.305408 0 1 0 32.610816 0 16.305408 16.305408 0 1 0-32.610816 0Z"
		 p-id="4069"></path>
	<path
		d="M908.208537 176.098406L737.001754 4.891622A16.305408 16.305408 0 0 0 727.218509 0H177.726262A66.852173 66.852173 0 0 0 110.874089 66.852173v890.275273a66.852173 66.852173 0 0 0 66.852173 66.852172h189.142732a16.305408 16.305408 0 0 0 17.120678-16.305408 17.120678 17.120678 0 0 0-17.120678-17.120678H177.726262a33.426086 33.426086 0 0 1-33.426087-33.426086V66.852173A33.426086 33.426086 0 0 1 177.726262 33.426086h540.524273l138.595967 138.595968H741.893376v-70.113254a16.305408 16.305408 0 0 0-17.120678-16.305408 16.305408 16.305408 0 0 0-16.305408 16.305408v86.418662a16.305408 16.305408 0 0 0 16.305408 16.305408h172.022054a16.305408 16.305408 0 0 0 16.305408-16.305408 16.305408 16.305408 0 0 0-4.891623-12.229056zM913.10016 271.485042a16.305408 16.305408 0 0 0-16.305408-16.305408 16.305408 16.305408 0 0 0-17.120679 16.305408v685.642404a33.426086 33.426086 0 0 1-33.426086 33.426086H501.388609a17.120678 17.120678 0 0 0-17.120678 17.120678 16.305408 16.305408 0 0 0 17.120678 16.305408H844.617446a66.852173 66.852173 0 0 0 66.852173-66.852172V271.485042z"
		 p-id="4070"></path>
	<path
		d="M393.940114 440.912233m7.109643 7.86012l8.203434 9.06937q7.109643 7.860121-0.750477 14.969764l-125.157306 113.207396q-7.860121 7.109643-14.969764-0.750478l-8.203434-9.06937q-7.109643-7.860121 0.750477-14.969763l125.157306-113.207396q7.860121-7.109643 14.969764 0.750477Z"
		 p-id="4071"></path>
	<path
		d="M416.452164 673.717021m-7.109643 7.86012l-8.203435 9.06937q-7.109643 7.860121-14.969764 0.750478l-125.157306-113.207396q-7.860121-7.109643-0.750477-14.969764l8.203434-9.06937q7.109643-7.860121 14.969764-0.750477l125.157306 113.207396q7.860121 7.109643 0.750478 14.969763Z"
		 p-id="4072"></path>
	<path
		d="M770.95857 568.607602m-7.109643 7.860121l-8.203435 9.06937q-7.109643 7.860121-14.969764 0.750477l-125.157306-113.207395q-7.860121-7.109643-0.750477-14.969764l8.203434-9.06937q7.109643-7.860121 14.969764-0.750478l125.157306 113.207396q7.860121 7.109643 0.750478 14.969764Z"
		 p-id="4073"></path>
	<path
		d="M748.737286 546.223089m7.109643 7.86012l8.203435 9.06937q7.109643 7.860121-0.750478 14.969764l-125.157306 113.207396q-7.860121 7.109643-14.969764-0.750478l-8.203434-9.06937q-7.109643-7.860121 0.750477-14.969763l125.157307-113.207396q7.860121-7.109643 14.969763 0.750477Z"
		 p-id="4074"></path>
	<path
		d="M453.790611 706.924011m-9.178583-5.299257l-10.590674-6.114528q-9.178583-5.299258-3.879325-14.477841l129.220358-223.816225q5.299258-9.178583 14.477841-3.879326l10.590673 6.114528q9.178583 5.299258 3.879325 14.477841l-129.220357 223.816225q-5.299258 9.178583-14.477841 3.879326Z"
		 p-id="4075"></path>
</svg>
