<?xml version="1.0" standalone="no"?><!DOCTYPE svg PUBLIC "-//W3C//DTD SVG 1.1//EN"
	"http://www.w3.org/Graphics/SVG/1.1/DTD/svg11.dtd">
<svg t="1629801655896" class="icon" viewBox="0 0 1024 1024" version="1.1" xmlns="http://www.w3.org/2000/svg" p-id="7765"
	 width="32" height="32">
	<defs>
		<style type="text/css"></style>
	</defs>
	<path
		d="M910.234 75c62.807 0.058 113.708 50.959 113.766 113.766v512c-0.058 62.807-50.959 113.708-113.766 113.766H593.93l-61.798 126.316a28.415 28.415 0 0 1-40.264 0L430.07 814.532H113.766C50.96 814.474 0.058 763.573 0 700.766v-512C0.058 125.96 50.959 75.058 113.766 75z m0 56.883H113.766c-31.404 0.052-56.83 25.48-56.883 56.883v511.948c0.058 31.383 25.5 56.801 56.883 56.83h328.048a28.415 28.415 0 0 1 20.132 8.389L512 880.453l50.054-114.416a28.415 28.415 0 0 1 20.132-8.388h328.048c31.404-0.052 56.83-25.48 56.883-56.883v-512c-0.052-31.404-25.48-56.883-56.883-56.883zM512 282.191l-0.001 196.6H708.6v65.534H446.467V282.19H512z"
		p-id="7766"></path>
</svg>
