<?xml version="1.0" standalone="no"?><!DOCTYPE svg PUBLIC "-//W3C//DTD SVG 1.1//EN" "http://www.w3.org/Graphics/SVG/1.1/DTD/svg11.dtd"><svg t="1628590468090" class="icon" viewBox="0 0 1024 1024" version="1.1" xmlns="http://www.w3.org/2000/svg" p-id="11840" xmlns:xlink="http://www.w3.org/1999/xlink" width="128" height="128"><defs><style type="text/css"></style></defs><path d="M512 1024c-247.04 0-448-200.96-448-448s200.96-448 448-448 448 200.96 448 448-200.96 448-448 448z m0-64c211.712 0 384-172.288 384-384s-172.288-384-384-384C300.352 192 128 364.352 128 576c0 211.712 172.288 384 384 384z m12.864-360.576h199.232a32 32 0 0 1 0 64H460.8v-290.56a32 32 0 0 1 64 0v226.56zM91.712 144l221.696-128a32 32 0 0 1 32 55.424l-221.696 128a32 32 0 1 1-32-55.424z m829.696 0a32 32 0 1 1-32 55.424l-221.696-128a32 32 0 1 1 32-55.424l221.696 128z" p-id="11841"></path></svg>