<?xml version="1.0" standalone="no"?><!DOCTYPE svg PUBLIC "-//W3C//DTD SVG 1.1//EN"
	"http://www.w3.org/Graphics/SVG/1.1/DTD/svg11.dtd">
<svg t="1628591102079" class="icon" viewBox="0 0 1025 1024" version="1.1" xmlns="http://www.w3.org/2000/svg"
	 p-id="19664"
	 width="128.125" height="128">
	<defs>
		<style type="text/css"></style>
	</defs>
	<path
		d="M96.256 636.032h192c17.664 0 32-14.336 32-32s-14.336-32-32-32h-192c-17.664 0-32 14.336-32 32s14.336 32 32 32z m918.784 267.392L904.832 793.216c34.112-43.52 55.36-97.6 55.36-157.248 0-141.376-114.624-256-256-256s-256 114.624-256 256 114.624 256 256 256c59.648 0 113.728-21.248 157.248-55.36l110.208 110.208c12.032 11.968 31.36 11.968 43.392 0 11.968-12.032 11.968-31.36 0-43.392zM841.408 770.048c-0.576 0.512-1.344 0.704-1.856 1.28s-0.768 1.344-1.28 1.856c-34.624 33.792-81.792 54.784-134.08 54.784-106.048 0-192-85.952-192-192s85.952-192 192-192 192 85.952 192 192c0.064 52.288-20.928 99.456-54.784 134.08zM96.256 252.032h576c17.664 0 32-14.336 32-32s-14.336-32-32-32h-576c-17.664 0-32 14.336-32 32s14.336 32 32 32z m256 128h-256c-17.664 0-32 14.336-32 32s14.336 32 32 32h256c17.664 0 32-14.336 32-32s-14.336-32-32-32z m0 384h-256c-17.664 0-32 14.336-32 32s14.336 32 32 32h256c17.664 0 32-14.336 32-32s-14.336-32-32-32z"
		p-id="19665"></path>
</svg>
