<?xml version="1.0" standalone="no"?><!DOCTYPE svg PUBLIC "-//W3C//DTD SVG 1.1//EN"
	"http://www.w3.org/Graphics/SVG/1.1/DTD/svg11.dtd">
<svg t="1629801507471" class="icon" viewBox="0 0 1024 1024" version="1.1" xmlns="http://www.w3.org/2000/svg" p-id="3584"
	 width="32" height="32">
	<defs>
		<style type="text/css"></style>
	</defs>
	<path
		d="M897.438202 687.780275h-190.908031a21.3067 21.3067 0 0 1 0-42.6134h190.908031a21.3067 21.3067 0 1 1 0 42.6134zM897.438202 790.052434h-190.908031a21.3067 21.3067 0 0 1 0-42.613399h190.908031a21.3067 21.3067 0 0 1 0 42.613399zM897.438202 892.324594h-190.908031a21.3067 21.3067 0 0 1 0-42.6134h190.908031a21.3067 21.3067 0 0 1 0 42.6134zM627.695381 687.780275h-23.863504a21.3067 21.3067 0 0 1 0-42.6134h23.863504a21.3067 21.3067 0 0 1 0 42.6134zM627.695381 790.052434h-23.863504a21.3067 21.3067 0 0 1 0-42.613399h23.863504a21.3067 21.3067 0 0 1 0 42.613399zM627.695381 892.324594h-23.863504a21.3067 21.3067 0 1 1 0-42.6134h23.863504a21.3067 21.3067 0 0 1 0 42.6134z"
		p-id="3585"></path>
	<path
		d="M546.303787 639.200999a42.6134 42.6134 0 0 1 42.6134-42.6134h288.066583a286.788181 286.788181 0 0 0 11.079484-74.57345c0-184.516022-173.010404-334.941323-392.469413-334.941323-207.527258 0-392.043279 150.425302-392.043279 334.941323 0 103.976696 69.033708 196.447774 161.504785 265.907615l-34.516853 115.482314 127.840199-69.459842a580.820641 580.820641 0 0 0 138.49355 23.011236 400.139825 400.139825 0 0 0 49.431544-4.687474z m76.277986-267.186018a49.857678 49.857678 0 0 1 46.448606 45.170204 49.857678 49.857678 0 0 1-46.448606 46.448606 52.414482 52.414482 0 0 1-57.52809-46.448606 52.414482 52.414482 0 0 1 57.52809-46.022472z m-253.54973 91.61881A52.840616 52.840616 0 0 1 311.077819 417.185185a52.840616 52.840616 0 0 1 57.954224-46.022472 49.857678 49.857678 0 0 1 46.022472 46.022472 49.857678 49.857678 0 0 1-46.022472 46.448606z"
		p-id="3586"></path>
</svg>
