<?xml version="1.0" standalone="no"?><!DOCTYPE svg PUBLIC "-//W3C//DTD SVG 1.1//EN"
	"http://www.w3.org/Graphics/SVG/1.1/DTD/svg11.dtd">
<svg t="1628589828827" class="icon" viewBox="0 0 1024 1024" version="1.1" xmlns="http://www.w3.org/2000/svg" p-id="3206"
	 width="128" height="128">
	<defs>
		<style type="text/css"></style>
	</defs>
	<path
		d="M992.768 755.712H31.232c-16.896 0-30.72-13.824-30.72-30.72V137.728C0.512 61.952 62.464 0 138.24 0h747.52c75.776 0 137.728 61.952 137.728 137.728v587.264c0 16.896-13.824 30.72-30.72 30.72z m-930.304-61.44h899.584V137.728c0-41.984-34.304-75.776-75.776-75.776H138.24c-41.984 0-75.776 34.304-75.776 75.776v556.544z m930.304 167.424H31.232c-16.896 0-30.72-13.824-30.72-30.72s13.824-30.72 30.72-30.72h961.024c16.896 0 30.72 13.824 30.72 30.72 0.512 16.896-13.312 30.72-30.208 30.72z"
		p-id="3207"></path>
	<path
		d="M512 1024c-17.92 0-32.256-14.336-32.256-32.256v-161.28c0-17.92 14.336-32.256 32.256-32.256s32.256 14.336 32.256 32.256v161.28c0 17.92-14.336 32.256-32.256 32.256zM232.448 502.272l86.528-231.936c7.68-22.016 23.04-33.792 45.056-34.816 20.992 1.024 36.864 12.8 46.592 34.816l83.456 231.936c1.024 7.68 2.048 13.312 3.584 16.896-1.024 16.896-11.264 25.088-30.208 25.088-16.896 0-27.136-6.656-31.744-19.968l-11.776-39.936h-117.76l-13.312 39.936c-5.632 13.312-16.384 19.968-31.744 19.968-18.944 0-29.184-8.704-30.208-26.624v-11.776c1.024-1.536 1.536-2.56 1.536-3.584zM364.544 302.08l-39.936 123.392h79.872L364.544 302.08z m174.592 210.432v-240.64c1.024-18.944 11.776-29.696 31.744-31.744h71.68c95.744 4.608 145.92 56.32 150.016 155.136-5.632 94.72-54.272 143.872-146.944 148.48h-73.216c-22.016-1.024-33.28-11.264-33.28-31.232z m63.488-214.016v186.88h43.52c50.176-1.024 76.8-31.744 79.872-91.648-1.024-62.464-29.696-94.208-84.992-95.232h-38.4z"
		p-id="3208"></path>
</svg>
