<?xml version="1.0" standalone="no"?><!DOCTYPE svg PUBLIC "-//W3C//DTD SVG 1.1//EN"
	"http://www.w3.org/Graphics/SVG/1.1/DTD/svg11.dtd">
<svg t="1629801415148" class="icon" viewBox="0 0 1251 1024" version="1.1" xmlns="http://www.w3.org/2000/svg" p-id="2098"
	 width="39.09375" height="32">
	<defs>
		<style type="text/css"></style>
	</defs>
	<path
		d="M613.017069 321.62023c30.785313 0 50.994447-21.634008 50.994447-53.061518s-20.771056-53.061518-50.994447-53.061518c-29.460782 0-61.008705 20.309477-61.008704 53.061518 0 32.109845 31.547922 53.061518 61.008704 53.061518z m-234.803238-53.824127C378.274037 236.368593 357.22202 214.734585 326.717668 214.734585c-29.842087 0-61.811451 20.329545-61.811451 53.061518s31.929227 53.081587 61.771314 53.081587c31.166618 0.74254 51.556369-20.891468 51.556369-53.081587z"
		p-id="2099"></path>
	<path
		d="M1251.521327 650.404969c0-82.040653-36.825978-161.271694-102.93212-222.762046-65.524151-60.787949-152.963272-98.236056-245.680448-106.36386v-4.31476C863.614337 136.466839 669.490258 0 450.220157 0 201.509343 0 0 172.389728 0 384.294633c0 112.906241 57.416416 215.497194 166.951123 295.470775L129.362536 792.711787a21.634008 21.634008 0 0 0 6.622656 23.520461 23.038813 23.038813 0 0 0 24.363344 2.97016l142.688122-71.123305 17.018217 3.57222h0.74254c44.151036 8.850276 74.795869 15.071558 121.997341 15.071558 8.870345 0 49.489298-2.468444 61.189322-6.221282 54.386049 131.911255 200.184812 220.755181 363.543646 220.755181 41.180876 0 83.084223-9.612885 125.027707-19.767623l109.715325 59.463418a23.600736 23.600736 0 0 0 10.395562 3.030367 19.66728 19.66728 0 0 0 14.048057-5.097438 21.935038 21.935038 0 0 0 7.345127-23.480324l-27.955633-91.653537c93.118549-74.254015 145.417458-164.562953 145.417458-253.306536z m-192.438312 219.992573a20.068653 20.068653 0 0 0-7.365195 22.978607l15.673618 52.680214-67.029301-36.50488a24.664374 24.664374 0 0 0-10.395562-3.010298 13.004487 13.004487 0 0 0-5.278056 0.74254c-38.7325 9.612885-79.130698 20.068653-118.605738 20.068653-181.30021 0-328.985426-124.204892-328.985425-276.465761s147.48453-276.465761 328.784739-276.465761c178.289912 0 328.222817 126.432513 328.222817 276.666448 0.762609 75.638752-47.000785 153.745949-135.021897 219.229963zM222.079712 668.848061a21.192497 21.192497 0 0 0-8.027461-24.28307C111.120131 572.679077 58.801153 485.540986 58.801153 385.057242c0-181.059386 175.078927-328.423503 390.73667-328.423504 188.304169 0 356.941059 114.391321 393.586419 266.110337C642.19689 327.119041 479.500322 469.365652 479.500322 641.75538a256.176353 256.176353 0 0 0 9.632953 69.618157c-0.762609 0-4.535516 0.381304-5.298124 0.381304-11.700025 0.74254-22.075518 1.123845-34.55822 1.123845-41.923416 0-77.986785-7.325058-116.899903-15.432794l-23.600736-4.314761a29.701606 29.701606 0 0 0-14.048057 1.505149l-97.754408 48.927376z"
		p-id="2100"></path>
	<path
		d="M740.312534 509.743782c-20.229202 0-40.618953 21.654076-40.618953 43.288084s20.209133 43.288084 40.618953 43.288084c30.765245 0 49.649847-22.396617 49.649847-43.288084S771.077779 509.743782 740.312534 509.743782z m221.698408 0c-19.265907 0-37.769205 21.654076-37.769205 43.288084s18.503298 43.288084 37.769205 43.288084c29.079478 0 47.020854-22.396617 47.020853-43.288084S991.09042 509.743782 962.010942 509.743782z"
		p-id="2101"></path>
</svg>
