<?xml version="1.0" standalone="no"?><!DOCTYPE svg PUBLIC "-//W3C//DTD SVG 1.1//EN"
	"http://www.w3.org/Graphics/SVG/1.1/DTD/svg11.dtd">
<svg t="1628591230186" class="icon" viewBox="0 0 1024 1024" version="1.1" xmlns="http://www.w3.org/2000/svg"
	 p-id="20482"
	 width="128" height="128">
	<defs>
		<style type="text/css"></style>
	</defs>
	<path
		d="M287.232 558.592c0 29.696-0.512 58.368 0 88.064 0 9.216-2.048 12.8-12.288 12.8-27.648-1.024-22.016 3.072-22.016-22.528-0.512-16.384-0.512-32.256 0-48.64 0-7.68-1.536-11.264-10.24-11.264-15.36 0.512-31.232 0.512-47.104 0-8.192-0.512-10.752 3.072-10.752 10.752 0.512 19.968-0.512 39.424 0.512 59.392 1.024 15.872-10.24 11.264-17.92 11.264-7.168 0-16.896 4.608-16.384-10.752 0.512-59.392 0.512-119.296 0-178.688 0-12.8 6.656-12.8 14.336-11.264 7.168 1.536 20.48-7.168 19.968 10.752-0.512 19.968 0.512 39.424-0.512 59.392-0.512 9.216 2.56 11.776 11.776 11.776 13.824-0.512 28.672-1.024 42.496 0 10.752 0.512 14.848-2.048 13.824-13.312-1.024-18.944 0-37.888-0.512-56.832 0-8.192 1.024-12.288 10.752-12.288 23.04 0 23.04-1.024 23.04 22.528 1.024 26.112 1.024 52.224 1.024 78.848zM537.088 577.024c0 23.552-0.512 47.104 0 70.656 0.512 16.384-10.752 10.24-17.92 10.752-7.68 0.512-16.384 3.584-16.384-11.264 1.024-46.592 0-93.184 0.512-139.776 0-12.288-2.56-17.92-15.36-15.36-4.096 0.512-8.704-0.512-12.8 0-15.36 3.072-18.944-4.096-18.944-18.432 0.512-12.8 3.072-16.896 16.384-16.384 32.256 1.024 65.024 1.024 97.28 0 16.896-0.512 11.776 10.752 12.288 18.432 0.512 8.704 3.072 16.896-12.288 16.896-33.28-0.512-33.28 0.512-33.28 34.304 0.512 16.384 0.512 33.28 0.512 50.176zM361.984 574.976c0-23.552-0.512-47.104 0-70.656 0-9.216-1.536-13.824-12.288-12.8-5.12 0.512-10.752-0.512-15.36 0.512-15.36 2.56-19.456-3.584-18.944-18.432 0.512-12.8 3.072-16.896 16.384-16.384 32.256 1.024 65.024 1.024 97.28 0 16.896-0.512 11.776 10.24 12.288 18.432 0.512 8.704 3.072 16.896-12.288 16.896-33.28-0.512-33.792 0.512-33.792 34.304 0 39.424-1.024 79.872 0.512 119.296 0.512 16.384-9.216 12.8-17.92 12.8-9.216 0.512-17.408 1.536-16.384-13.312 1.536-23.552 0.512-46.592 0.512-70.656zM901.12 459.264c-15.36 46.592-30.72 92.16-46.08 138.24-7.68 23.04-15.36 46.592-23.04 70.144-8.192 24.064-8.192 24.064-36.352 21.504 9.728-29.184 18.944-57.344 28.672-86.016 13.312-40.96 27.648-82.432 40.96-123.392 7.168-25.088 7.68-25.088 35.84-20.48zM957.44 458.24c-9.216 27.648-17.92 54.272-26.624 80.896-15.36 46.08-30.72 92.16-46.592 138.24-3.584 10.752-20.992 17.92-29.696 12.288-5.632-4.096-1.024-8.192 0.512-12.288 17.408-53.248 35.328-106.496 52.736-159.232 4.608-14.336 10.752-28.672 13.824-43.008 3.584-14.848 10.752-19.968 25.088-17.408 3.072 0.512 6.656 0.512 10.752 0.512zM783.36 536.576c-0.512 12.288-9.728 22.016-20.48 21.504-10.752-0.512-19.456-10.752-19.456-22.528s9.728-22.016 20.992-21.504c10.752 0 18.944 10.24 18.944 22.528z m0 103.936c-0.512 12.288-9.728 22.016-20.48 21.504-10.752-0.512-19.456-10.752-19.456-22.528s9.728-22.016 20.992-21.504c10.24 0 18.944 10.24 18.944 22.528zM664.064 457.728h-20.48c-6.656 0-13.312 0.512-20.992-0.512-13.312-2.048-15.872 4.096-15.872 16.384 0.512 55.808 0.512 111.616 0 167.936-0.512 13.312 2.048 17.92 16.384 17.92 14.336-0.512 19.456-4.608 17.92-18.432-1.024-10.24 0-19.968 0-30.208 0-23.552 0-23.552 22.528-24.576 35.328-1.536 57.856-29.696 56.832-70.656 0.512-37.376-19.456-57.344-56.32-57.856z m14.336 89.088c-8.192 10.24-20.48 9.216-31.744 8.704-5.12 0-5.12-4.096-5.12-7.68 0-16.384 0.512-33.28 0-49.664-0.512-12.8 8.192-7.68 13.312-8.704 12.8-0.512 23.04 3.584 28.16 15.872 5.12 13.824 5.632 28.672-4.608 41.472zM319.488 190.464h64v64H319.488V190.464z m-128 0h64v64H191.488V190.464zM97.792 318.976h832.512v64H97.792V318.976z m349.696-128.512H512v64H447.488V190.464z"
		p-id="20483"></path>
	<path
		d="M895.488 895.488H128.512V125.952h766.976v295.936h61.44V125.952c0-33.792-27.648-61.44-61.44-61.44H128.512c-33.792 0-61.44 27.648-61.44 61.44V896c0 33.792 27.648 61.44 61.44 61.44h766.976c33.792 0 61.44-27.648 61.44-61.44v-168.96h-61.44v168.448z"
		p-id="20484"></path>
</svg>
