<?xml version="1.0" standalone="no"?><!DOCTYPE svg PUBLIC "-//W3C//DTD SVG 1.1//EN"
	"http://www.w3.org/Graphics/SVG/1.1/DTD/svg11.dtd">
<svg t="1628590103369" class="icon" viewBox="0 0 1024 1024" version="1.1" xmlns="http://www.w3.org/2000/svg" p-id="5136"
	 width="128" height="128">
	<defs>
		<style type="text/css"></style>
	</defs>
	<path
		d="M512 64c53.394286 0 103.570286 20.772571 141.385143 58.587429 37.814857 37.814857 58.587429 87.990857 58.587428 141.385142s-20.772571 103.643429-58.514285 141.458286a198.656 198.656 0 0 1-141.458286 58.514286c-53.394286 0-103.570286-20.772571-141.385143-58.514286a198.656 198.656 0 0 1-58.587428-141.458286c0-53.394286 20.772571-103.570286 58.514285-141.385142A198.436571 198.436571 0 0 1 512 64zM512 0a264.045714 264.045714 0 1 0 0 528.018286A264.045714 264.045714 0 0 0 512 0z m0 576h-32.475429a16.530286 16.530286 0 0 0-16.530285 16.530286c-3.510857 51.931429-11.117714 101.741714-6.802286 154.697143 0.073143 1.901714 55.881143 172.397714 55.881143 172.397714V576H512z"
		p-id="5137"></path>
	<path
		d="M512 919.698286s55.808-170.496 55.881143-172.397715c4.242286-53.028571-3.291429-102.765714-6.802286-154.697142a16.530286 16.530286 0 0 0-16.457143-16.530286H512v343.625143H512zM282.477714 623.908571l109.202286 336.091429H79.067429a417.645714 417.645714 0 0 1 73.728-214.528A425.106286 425.106286 0 0 1 282.477714 623.908571z m38.034286-89.965714A484.352 484.352 0 0 0 16.091429 1024h463.725714L320.512 533.942857z m421.010286 89.965714a422.765714 422.765714 0 0 1 129.609143 121.563429c44.032 63.707429 69.266286 137.435429 73.654857 214.528H632.32l109.202286-336.091429zM703.414857 533.942857L544.182857 1024h463.725714a484.425143 484.425143 0 0 0-304.493714-490.057143z"
		p-id="5138"></path>
</svg>
