<?xml version="1.0" standalone="no"?><!DOCTYPE svg PUBLIC "-//W3C//DTD SVG 1.1//EN" "http://www.w3.org/Graphics/SVG/1.1/DTD/svg11.dtd"><svg t="1628590688189" class="icon" viewBox="0 0 1024 1024" version="1.1" xmlns="http://www.w3.org/2000/svg" p-id="14222" xmlns:xlink="http://www.w3.org/1999/xlink" width="128" height="128"><defs><style type="text/css"></style></defs><path d="M939.2128 958.4128 80 958.4128c-14.1312 0-25.6-11.4688-25.6-25.6L54.4 214.4c0-14.1312 11.4688-25.6 25.6-25.6l235.2128 0c14.1312 0 25.6 11.4688 25.6 25.6s-11.4688 25.6-25.6 25.6L105.6 240l0 667.2128 808.0128 0L913.6128 240l-204.8 0c-14.1312 0-25.6-11.4688-25.6-25.6s11.4688-25.6 25.6-25.6l230.4 0c14.1312 0 25.6 11.4688 25.6 25.6l0 718.4128C964.8128 946.944 953.344 958.4128 939.2128 958.4128z" p-id="14223"></path><path d="M744.0128 368l-460.8 0c-14.1312 0-25.6-11.4688-25.6-25.6s11.4688-25.6 25.6-25.6l460.8 0c14.1312 0 25.6 11.4688 25.6 25.6S758.144 368 744.0128 368z" p-id="14224"></path><path d="M606.7456 365.056c-14.1312 0-25.6-11.4688-25.6-25.6L581.1456 170.88c-7.296-61.5168-60.0832-62.6688-70.8608-62.08-50.048 0.0256-65.7408 53.376-68.48 64.4864l0 166.1696c0 14.1312-11.4688 25.6-25.6 25.6s-25.6-11.4688-25.6-25.6L390.6048 170.496c0-1.6128 0.1536-3.2256 0.4608-4.8128 7.1424-37.376 41.0112-108.0576 117.9904-108.0576 37.6064-1.9968 113.4336 17.92 123.1616 109.1072 0.1024 0.896 0.1536 1.792 0.1536 2.7136l0 170.0352C632.3456 353.6128 620.8768 365.056 606.7456 365.056z" p-id="14225"></path><path d="M512 185.6m-23.9104 0a0.934 0.934 0 1 0 47.8208 0 0.934 0.934 0 1 0-47.8208 0Z" p-id="14226"></path><path d="M349.8752 654.9248c-54.1184 0-98.1248-44.0064-98.1248-98.1248s44.0064-98.1248 98.1248-98.1248S448 502.6816 448 556.8 403.9936 654.9248 349.8752 654.9248zM349.8752 484.2752c-39.9872 0-72.5248 32.5376-72.5248 72.5248s32.5376 72.5248 72.5248 72.5248S422.4 596.7872 422.4 556.8 389.8624 484.2752 349.8752 484.2752z" p-id="14227"></path><path d="M459.2128 818.0224 235.1872 818.0224c-48.1792 0-87.3728-39.1936-87.3728-87.3728s39.1936-87.3728 87.3728-87.3728l224.0256 0c48.1792 0 87.3728 39.1936 87.3728 87.3728S507.392 818.0224 459.2128 818.0224zM235.1872 694.5024c-19.9424 0-36.1728 16.2304-36.1728 36.1728s16.2304 36.1728 36.1728 36.1728l224.0256 0c19.9424 0 36.1728-16.2304 36.1728-36.1728s-16.2304-36.1728-36.1728-36.1728L235.1872 694.5024z" p-id="14228"></path><path d="M836.2752 558.9248l-222.9248 0c-14.1312 0-25.6-11.4688-25.6-25.6s11.4688-25.6 25.6-25.6l222.9248 0c14.1312 0 25.6 11.4688 25.6 25.6S850.4064 558.9248 836.2752 558.9248z" p-id="14229"></path><path d="M836.2752 684.8l-222.9248 0c-14.1312 0-25.6-11.4688-25.6-25.6s11.4688-25.6 25.6-25.6l222.9248 0c14.1312 0 25.6 11.4688 25.6 25.6S850.4064 684.8 836.2752 684.8z" p-id="14230"></path><path d="M796.8 807.4752l-183.4752 0c-14.1312 0-25.6-11.4688-25.6-25.6s11.4688-25.6 25.6-25.6l183.4752 0c14.1312 0 25.6 11.4688 25.6 25.6S810.9312 807.4752 796.8 807.4752z" p-id="14231"></path></svg>