<?xml version="1.0" standalone="no"?><!DOCTYPE svg PUBLIC "-//W3C//DTD SVG 1.1//EN"
	"http://www.w3.org/Graphics/SVG/1.1/DTD/svg11.dtd">
<svg t="1628591420212" class="icon" viewBox="0 0 1024 1024" version="1.1" xmlns="http://www.w3.org/2000/svg"
	 p-id="24120"
	 width="128" height="128">
	<defs>
		<style type="text/css"></style>
	</defs>
	<path
		d="M906.24 226.816C809.984 101.376 630.272 76.8 504.32 173.056c-114.688-88.064-276.992-77.312-378.88 25.6-111.104 112.64-110.08 293.888 2.048 405.504l376.32 376.32L880.64 604.16c101.888-101.376 112.64-262.656 25.6-377.344z m-136.192 317.44h-173.568l-19.968-36.864-83.968 161.792-79.36-198.656-44.544 66.56H131.072c-22.528 0-40.96-18.432-40.96-40.96s18.432-40.96 40.96-40.96h194.048l107.008-159.744 70.656 177.152L575.488 332.8 645.12 462.336h124.928c22.528 0 40.96 18.432 40.96 40.96s-18.432 40.96-40.96 40.96z"
		p-id="24121"></path>
</svg>
