<?xml version="1.0" standalone="no"?><!DOCTYPE svg PUBLIC "-//W3C//DTD SVG 1.1//EN" "http://www.w3.org/Graphics/SVG/1.1/DTD/svg11.dtd"><svg t="1628590261122" class="icon" viewBox="0 0 1024 1024" version="1.1" xmlns="http://www.w3.org/2000/svg" p-id="7451" xmlns:xlink="http://www.w3.org/1999/xlink" width="128" height="128"><defs><style type="text/css"></style></defs><path d="M447.660942 416.483556c20.48 8.135111 33.848889 27.875556 33.621334 49.948444v503.125333c0 37.148444-36.181333 62.976-70.144 49.948445L33.680498 874.325333A53.191111 53.191111 0 0 1 0.002276 824.490667V321.365333c0-37.262222 36.238222-63.032889 70.257777-50.005333L447.717831 416.483556z m164.124445 603.022222c-33.905778 13.084444-70.314667-12.8-70.314667-49.948445V466.488889c0-22.186667 13.482667-42.211556 33.792-49.948445l377.400889-145.066666c33.905778-13.084444 70.314667 12.686222 70.314667 49.834666v503.125334c0 22.300444-13.482667 42.097778-33.848889 49.891555l-377.344 145.294223v-0.056889z m309.987555-875.690667c34.360889 13.141333 33.848889 63.146667-0.739555 75.776L524.517831 363.064889a38.513778 38.513778 0 0 1-26.168889 0L107.920498 221.752889c-35.271111-12.743111-34.702222-64 0.739555-76.231111L528.272498 2.048a38.343111 38.343111 0 0 1 26.282666 0.512l367.160889 141.255111v-0.056889z" p-id="7452"></path></svg>