<?xml version="1.0" standalone="no"?><!DOCTYPE svg PUBLIC "-//W3C//DTD SVG 1.1//EN" "http://www.w3.org/Graphics/SVG/1.1/DTD/svg11.dtd"><svg t="1628590851274" class="icon" viewBox="0 0 1024 1024" version="1.1" xmlns="http://www.w3.org/2000/svg" p-id="17803" xmlns:xlink="http://www.w3.org/1999/xlink" width="128" height="128"><defs><style type="text/css"></style></defs><path d="M1013.244477 213.997827L810.002173 10.755523a37.088012 37.088012 0 0 0-52.294096 0l-482.144151 482.144151a37.088012 37.088012 0 0 0-10.755523 26.332488v203.242304a37.088012 37.088012 0 0 0 37.088011 37.088011h203.242304a37.088012 37.088012 0 0 0 26.332488-10.755523l482.144151-482.144151a37.088012 37.088012 0 0 0-0.37088-52.664976zM473.984788 648.298443h-97.91235v-98.283231l407.968127-407.968128 98.283231 98.283231z" p-id="17804"></path><path d="M908.656284 541.855849a55.632017 55.632017 0 0 0-55.632017 55.632018v276.305686a37.088012 37.088012 0 0 1-37.088012 37.088012H148.352046a37.088012 37.088012 0 0 1-37.088011-37.088012v-667.584209a37.088012 37.088012 0 0 1 37.088011-37.088011h278.160087a55.632017 55.632017 0 0 0 0-111.264035H111.264035a111.264035 111.264035 0 0 0-111.264035 111.264035v741.760232a111.264035 111.264035 0 0 0 111.264035 111.264034h741.760232a111.264035 111.264035 0 0 0 111.264034-111.264034v-315.248099a55.632017 55.632017 0 0 0-55.632017-53.777617z" p-id="17805"></path></svg>