<?xml version="1.0" standalone="no"?><!DOCTYPE svg PUBLIC "-//W3C//DTD SVG 1.1//EN"
	"http://www.w3.org/Graphics/SVG/1.1/DTD/svg11.dtd">
<svg t="1629801611624" class="icon" viewBox="0 0 1024 1024" version="1.1" xmlns="http://www.w3.org/2000/svg" p-id="6879"
	 width="32" height="32">
	<defs>
		<style type="text/css"></style>
	</defs>
	<path
		d="M486.4 684.8c-96 0-172.8-76.8-172.8-172.8 0-96 76.8-172.8 172.8-172.8 96 0 172.8 76.8 172.8 172.8 6.4 96-76.8 172.8-172.8 172.8z m0-57.6c38.4 0 76.8-19.2 96-57.6 19.2-38.4 19.2-76.8 0-115.2-12.8-32-51.2-57.6-96-57.6-64 0-115.2 51.2-115.2 115.2s51.2 115.2 115.2 115.2zM768 870.4h166.4c6.4 0 12.8 0 19.2 6.4 6.4 6.4 6.4 12.8 6.4 19.2v6.4c0 6.4 0 12.8-6.4 19.2-6.4 6.4-12.8 6.4-19.2 6.4H768c-6.4 0-12.8 0-19.2-6.4-6.4-6.4-6.4-12.8-6.4-19.2V896c0-6.4 0-12.8 6.4-19.2 6.4 0 12.8-6.4 19.2-6.4z m0-115.2h166.4c6.4 0 12.8 0 19.2 6.4 6.4 6.4 6.4 12.8 6.4 19.2v6.4c0 6.4 0 12.8-6.4 19.2-6.4 6.4-12.8 6.4-19.2 6.4H768c-6.4 0-12.8 0-19.2-6.4-6.4-6.4-6.4-12.8-6.4-19.2v-6.4c0-6.4 0-12.8 6.4-19.2 6.4-6.4 12.8-6.4 19.2-6.4z m0-115.2h166.4c6.4 0 12.8 0 19.2 6.4 6.4 6.4 6.4 12.8 6.4 19.2v6.4c0 6.4 0 12.8-6.4 19.2-6.4 6.4-12.8 6.4-19.2 6.4H768c-6.4 0-12.8 0-19.2-6.4-6.4-6.4-6.4-12.8-6.4-19.2v-6.4c0-6.4 0-12.8 6.4-19.2 6.4-6.4 12.8-6.4 19.2-6.4z m0 0"
		p-id="6880"></path>
	<path
		d="M659.2 742.4v70.4c-12.8 6.4-32 19.2-51.2 25.6v51.2c0 19.2-6.4 38.4-19.2 51.2-6.4 12.8-25.6 19.2-44.8 19.2H435.2c-19.2 0-38.4-6.4-51.2-19.2-12.8-12.8-19.2-32-19.2-51.2v-51.2c-32-12.8-64-32-96-57.6L224 806.4c-32 19.2-76.8 12.8-96-25.6l-57.6-96c-12.8-32-6.4-70.4 25.6-89.6l44.8-25.6c-6.4-38.4-6.4-76.8 0-108.8l-44.8-32c-32-19.2-38.4-57.6-19.2-96l51.2-89.6c19.2-32 64-44.8 96-25.6l44.8 25.6c25.6-25.6 64-44.8 96-57.6v-51.2c0-19.2 6.4-38.4 19.2-51.2C396.8 70.4 416 64 435.2 64H544c38.4 0 70.4 32 70.4 70.4v51.2c32 12.8 64 32 96 57.6l44.8-25.6c32-19.2 76.8-6.4 96 25.6l57.6 96c19.2 32 6.4 76.8-25.6 96L832 454.4c6.4 32 6.4 70.4 0 102.4h-57.6c6.4-44.8 6.4-89.6-6.4-134.4l51.2-32L832 384c19.2-12.8 19.2-32 12.8-44.8l-32-51.2c-12.8-19.2-32-19.2-44.8-12.8l-12.8 6.4-51.2 32c-38.4-44.8-89.6-70.4-147.2-83.2V160c0-6.4-6.4-19.2-12.8-25.6-6.4-6.4-19.2-12.8-25.6-12.8h-57.6c-19.2 0-32 12.8-32 32V224c-64 19.2-108.8 51.2-153.6 89.6l-51.2-32h-6.4c-19.2-12.8-38.4-6.4-51.2 12.8l-25.6 51.2c-12.8 12.8-6.4 38.4 12.8 44.8l6.4 6.4 51.2 32c-6.4 25.6-12.8 57.6-12.8 83.2s6.4 57.6 12.8 83.2l-51.2 32-6.4 6.4c-19.2 6.4-25.6 32-12.8 44.8l32 51.2c12.8 19.2 32 19.2 44.8 12.8l6.4-6.4 51.2-32c38.4 44.8 89.6 70.4 147.2 83.2v70.4c0 6.4 6.4 19.2 12.8 25.6 6.4 12.8 12.8 19.2 25.6 19.2h57.6c6.4 0 19.2-6.4 25.6-12.8 6.4-6.4 12.8-12.8 12.8-25.6v-70.4c38.4-6.4 70.4-25.6 102.4-51.2z m0 0"
		p-id="6881"></path>
</svg>
