<?xml version="1.0" standalone="no"?><!DOCTYPE svg PUBLIC "-//W3C//DTD SVG 1.1//EN" "http://www.w3.org/Graphics/SVG/1.1/DTD/svg11.dtd"><svg t="1629801489560" class="icon" viewBox="0 0 1107 1024" version="1.1" xmlns="http://www.w3.org/2000/svg" p-id="3188" xmlns:xlink="http://www.w3.org/1999/xlink" width="34.59375" height="32"><defs><style type="text/css"></style></defs><path d="M49.089166 217.465005m-49.089166 0a49.089166 49.089166 0 1 0 98.178332 0 49.089166 49.089166 0 1 0-98.178332 0Z" fill="#4A4D51" p-id="3189"></path><path d="M554.216683 49.089166m-49.089166 0a49.089166 49.089166 0 1 0 98.178332 0 49.089166 49.089166 0 1 0-98.178332 0Z" fill="#4A4D51" p-id="3190"></path><path d="M1058.853308 217.465005m-49.089166 0a49.089166 49.089166 0 1 0 98.178332 0 49.089166 49.089166 0 1 0-98.178332 0Z" fill="#4A4D51" p-id="3191"></path><path d="M855.133269 915.022052H253.300096a66.270374 66.270374 0 0 1-65.779482-55.961649l-26.017258-156.594439a24.839118 24.839118 0 1 1 49.089166-7.854267l25.035474 156.594439a17.181208 17.181208 0 0 0 17.181208 14.72675h602.324065a17.181208 17.181208 0 0 0 17.181208-14.72675l78.542666-490.891659-200.283797 170.339406a23.071908 23.071908 0 0 1-20.126558 5.399808 24.053691 24.053691 0 0 1-17.181208-12.763183l-159.048897-295.516778-157.576223 294.534995a25.035475 25.035475 0 0 1-17.181208 12.272291 23.071908 23.071908 0 0 1-21.599233-3.927133L157.576222 364.732502l27.489933 171.812081a24.053691 24.053691 0 0 1-20.126558 27.980824 25.035475 25.035475 0 0 1-28.471716-20.126558l-37.798658-239.064237a24.053691 24.053691 0 0 1 13.744967-25.035475 24.544583 24.544583 0 0 1 27.489933 0l227.773729 193.411314 165.430489-309.752637a24.544583 24.544583 0 0 1 21.108342-13.254075 25.526366 25.526366 0 0 1 21.599233 13.254075l163.957814 309.752637 229.246404-190.956856a24.544583 24.544583 0 0 1 27.489933 0 25.035475 25.035475 0 0 1 12.272292 25.035475L920.912752 859.060403a66.270374 66.270374 0 0 1-65.779483 55.961649zM284.22627 974.910834h539.980825a24.544583 24.544583 0 0 1 24.544583 24.544583 24.544583 24.544583 0 0 1-24.544583 24.544583h-539.980825a24.544583 24.544583 0 0 1-24.544583-24.544583 24.544583 24.544583 0 0 1 24.544583-24.544583z" fill="#4A4D51" p-id="3192"></path></svg>